<svg xmlns="http://www.w3.org/2000/svg" viewBox="0 0 1811 189.94"><defs><style>.cls-1{fill:#3255a4;}.cls-2{fill:#ff2d21;}</style></defs><title>FTE-2020-Wordmark</title><g id="Layer_2" data-name="Layer 2"><g id="Layer_1-2" data-name="Layer 1"><polygon class="cls-1" points="1330.76 162.8 1317.26 162.8 1317.26 0 1783.99 0 1783.99 13.51 1330.76 13.51 1330.76 162.8"/><polygon class="cls-2" points="1797.49 27.01 1811 27.01 1811 189.81 1344.27 189.81 1344.27 176.31 1797.49 176.31 1797.49 27.01"/><path class="cls-1" d="M1433.74,157.94h-61.6a6.91,6.91,0,0,1-4.5-1.62,4.94,4.94,0,0,1-2-4V141.55a43.87,43.87,0,0,1,3.78-17.92,51,51,0,0,1,9.37-14.5q5.58-5.94,12.24-12.07t12.25-10.89a46.88,46.88,0,0,0,9.37-10.81,22.42,22.42,0,0,0,3.78-12,11.94,11.94,0,0,0-3.78-9,13.07,13.07,0,0,0-9.37-3.6q-10.44,0-13.68,13.33-1.27,5.4-5.77,5.4H1373a5,5,0,0,1-3.78-1.53,5.42,5.42,0,0,1-1.44-3.87,31,31,0,0,1,2-10.27,44.6,44.6,0,0,1,6-11.08,29.88,29.88,0,0,1,11.16-9.09,36.18,36.18,0,0,1,16.39-3.6q15.14,0,25.4,9.91T1439,64.83a36.53,36.53,0,0,1-5.13,18.46,64.62,64.62,0,0,1-12.43,15.58q-7.29,6.66-14.68,12.78a91.09,91.09,0,0,0-12.69,12.7q-5.31,6.57-5.68,12.88h45.39a5.23,5.23,0,0,1,5.4,5.4v9.91a5.23,5.23,0,0,1-5.4,5.4Z"/><path class="cls-1" d="M1546.48,66.27v57.27a36.11,36.11,0,1,1-72.22,0V66.27a36.11,36.11,0,1,1,72.22,0ZM1524,125.16V64.65a13.42,13.42,0,0,0-4-9.91,13.92,13.92,0,0,0-19.45,0,13.45,13.45,0,0,0-4,9.91v60.51A13.53,13.53,0,0,0,1510.46,139a13,13,0,0,0,9.64-4A13.62,13.62,0,0,0,1524,125.16Z"/><path class="cls-1" d="M1649.85,157.94h-61.59a6.91,6.91,0,0,1-4.5-1.62,4.91,4.91,0,0,1-2-4V141.55a43.87,43.87,0,0,1,3.78-17.92,51.17,51.17,0,0,1,9.36-14.5q5.58-5.94,12.25-12.07t12.25-10.89a46.84,46.84,0,0,0,9.36-10.81,22.33,22.33,0,0,0,3.78-12,11.9,11.9,0,0,0-3.78-9,13,13,0,0,0-9.36-3.6q-10.45,0-13.69,13.33-1.26,5.4-5.76,5.4h-10.81a5,5,0,0,1-3.78-1.53,5.42,5.42,0,0,1-1.44-3.87,31,31,0,0,1,2-10.27,44.55,44.55,0,0,1,5.94-11.08A29.91,29.91,0,0,1,1603,33.67a36.15,36.15,0,0,1,16.39-3.6q15.12,0,25.39,9.91t10.27,24.85a36.45,36.45,0,0,1-5.14,18.46,64.59,64.59,0,0,1-12.42,15.58q-7.29,6.66-14.68,12.78a90.64,90.64,0,0,0-12.7,12.7q-5.31,6.57-5.67,12.88h45.38a5.23,5.23,0,0,1,5.41,5.4v9.91a5.23,5.23,0,0,1-5.41,5.4Z"/><path class="cls-1" d="M1762.6,66.27v57.27a36.12,36.12,0,1,1-72.23,0V66.27a36.12,36.12,0,1,1,72.23,0Zm-22.52,58.89V64.65a13.45,13.45,0,0,0-4-9.91,13.92,13.92,0,0,0-19.45,0,13.45,13.45,0,0,0-4,9.91v60.51A13.53,13.53,0,0,0,1726.57,139a12.93,12.93,0,0,0,9.64-4A13.62,13.62,0,0,0,1740.08,125.16Z"/><polygon points="0 28.97 74.8 28.97 74.8 52.91 26.93 52.91 26.93 82.83 71.81 82.83 71.81 106.76 26.93 106.76 26.93 157.62 0 157.62 0 28.97"/><path d="M92.75,136.68h15V82.83h-15V58.89h38.89v77.79h12v20.94H92.75ZM107.71,29h23.93V52.91H107.71Z"/><path d="M535.55,136.68h15V82.83h-15V58.89h38.89v77.79h12v20.94H535.55ZM550.51,29h23.93V52.91H550.51Z"/><path d="M945.43,136.68h15V82.83h-15V58.89h38.9v77.79h12v20.94H945.43ZM960.39,29h23.94V52.91H960.39Z"/><polygon points="161.56 109.75 161.56 58.89 185.5 58.89 185.5 103.77 197.46 133.69 200.46 133.69 212.42 103.77 212.42 58.89 236.36 58.89 236.36 109.75 215.41 157.62 182.5 157.62 161.56 109.75"/><path d="M332.1,157.62H291.41c-24.53,0-37.1-11.37-37.1-35.3V94.79c0-22.73,12.86-38.89,38.89-38.89,27.83,0,38.9,15.26,38.9,41.89v20.94H281.24v5.09c0,7.77,3,12.86,10.17,12.86H332.1ZM281.24,97.79h23.93V93.3c0-7.78-3.29-16.46-12.27-16.46-8.37,0-11.66,6.59-11.66,16.46Z"/><polygon points="373.98 52.91 344.07 52.91 344.07 28.97 430.83 28.97 430.83 52.91 400.91 52.91 400.91 157.62 373.98 157.62 373.98 52.91"/><path d="M604.36,157.62V58.89h23.93v12c3.3-7.18,11.37-12,21.55-12h8.37V82.83h-18c-8.38,0-12,2.69-12,11.66v63.13Z"/><path d="M733,157.62H718.65c-21.24,0-30.52-11.07-30.52-33.21V82.83h-18V58.89h18V38h23.94V58.89H733V82.83H712.07l-.3,41.58c0,6.59,2.69,12.27,11.07,12.27H733v20.94Z"/><path d="M1259.58,157.62h-14.36c-21.24,0-30.52-11.07-30.52-33.21V82.83h-18V58.89h18V38h23.94V58.89h20.94V82.83h-20.94l-.3,41.58c0,6.59,2.69,12.27,11.07,12.27h10.17Z"/><polygon points="760.83 189.94 774.6 161.51 750.96 109.75 750.96 58.89 774.9 58.89 774.9 103.77 786.86 133.69 789.86 133.69 801.82 103.77 801.82 58.89 825.76 58.89 825.76 109.75 788.96 189.94 760.83 189.94"/><polygon points="849.69 28.97 924.49 28.97 924.49 52.91 876.62 52.91 876.62 79.83 921.5 79.83 921.5 103.77 876.62 103.77 876.62 133.69 924.49 133.69 924.49 157.62 849.69 157.62 849.69 28.97"/><path d="M1008.26,172.58v-6h48.17c6,0,8.68-.6,8.68-3.89v-.9c0-3.29-2.69-4.19-8.68-4.19h-39.19v-15l15-15c-15.86-4.48-23.94-16.15-23.94-32.91v-3c0-22.74,13.17-35.9,41.89-35.9a75.37,75.37,0,0,1,17.95,3l12-18,15,9-12,18c4.19,5.68,9,14.66,9,23.93v3c0,20.95-9.87,32-35.9,32.91l-9,12h17.95c17.65,0,26.92,7.78,26.92,23v.3c0,15.26-8.07,24.53-25.73,24.53h-38.89C1014.55,187.54,1008.26,182.16,1008.26,172.58Zm56.85-74.79v-9c0-9.87-3.89-12-15-12s-15,2.1-15,12v9c0,9.87,4.19,12,15,12S1065.11,108,1065.11,97.79Z"/><path d="M1136.91,157.62H1113V29h23.93V70.86c3.29-8.08,10.18-12,20.95-12,18.84,0,26.92,9.28,26.92,32.31v66.42h-23.93V94.79c0-9.27-3.29-15-12-15s-12,5.69-12,15Z"/><path d="M469.72,157.62H445.79V29h23.93V70.86c3.3-8.08,11.67-12,22.44-12,18.85,0,25.43,9.28,25.43,32.31v66.42H493.66V91.8c0-9.27-3.29-13.16-12-13.16s-12,6.88-12,16.15Z"/></g></g></svg>