<?xml version="1.0" encoding="UTF-8"?>
<svg width="1024px" height="4829px" viewBox="0 0 1024 4829" version="1.1" xmlns="http://www.w3.org/2000/svg" xmlns:xlink="http://www.w3.org/1999/xlink">
    <!-- Generator: Sketch 64 (93537) - https://sketch.com -->
    <title>GF-background-noshadow</title>
    <desc>Created with Sketch.</desc>
    <g id="GF-background-noshadow" stroke="none" stroke-width="1" fill="none" fill-rule="evenodd">
        <polygon id="bkgnd" fill="#FAF9F9" points="1 6638 1025 6638 1025 -1362 1 -1362"></polygon>
        <g id="road" transform="translate(-280.000000, 83.000000)" fill="#CCCCCC">
            <path d="M-2785.82073,4554.9523 C-2866.93592,4554.9523 -684.309469,4471.63465 3762.05863,4304.99935 L3770.05863,3942.92563 C3711.74613,3816.64145 3627.93363,3753.49935 3518.62113,3753.49935 C3383.33988,3753.49935 3432.58988,4262.99935 3106.2305,4249.99935 C2932.57293,4243.08199 2936.19925,3829.75825 2790.55863,3833.25825 C2619.25934,3837.37488 2598.64926,3606.17012 2451.05863,3602.99935 C2218.32212,3597.99935 2346.96525,3917.99935 2187.58393,3936.49935 C2095.19765,3947.22299 2214.05863,4363.28153 1876.05863,4363.28153 C1644.05863,4363.28153 1658.8467,3710.99935 1601.05863,3710.99935 C1406.55863,3710.99935 1507.49915,3912.99935 1344.90917,3912.99935 C1126.01218,3912.99935 1285.70835,4228.99935 1020.88349,4228.99935 C756.058626,4228.99935 811.383302,3667.95935 618.058626,3667.95935 C424.733949,3667.95935 504.797244,4427.11724 220.322601,4427.11724 C-48.6773994,4427.11724 45.3226006,3690.65737 -222.677399,3690.85766 C-490.677399,3691.05795 -681.011232,4467.62852 -947.677399,4468.46792 C-1197.39382,4469.25397 -1202.77246,3630.58154 -1293.94784,3629.19142 C-1340.74611,3628.47791 -1370.34973,3842.45998 -1526.33979,3842.45998 C-1682.32985,3842.45998 -1607.62871,4584.99935 -1777.6774,4584.99935 C-2127.05249,4584.99935 -2189.41342,3696.90524 -2332.1774,3708.9523 C-2474.94137,3720.99935 -2568.96714,4554.9523 -2785.82073,4554.9523 Z" id="Path-7" transform="translate(491.028990, 4093.970365) rotate(-270.000000) translate(-491.028990, -4093.970365) "></path>
            <path d="M1305,7365 C1305,7627.29799 1325.04706,341.476131 1325.04706,46.4761309 C1325.04706,-3.10041187 298.403776,-118.005017 310.133388,414.531559 C321.862999,947.068136 1270.04706,908 1270.04706,1165.26397 C1270.04706,1394.26397 363.363561,1540.71567 363.363561,1713.11044 C363.363561,1885.50522 938.267909,1765.16241 938.267909,2014.26397 C938.267909,2263.36554 1385.28222,2139.0003 1389.33228,2328.0003 C1395.81958,2630.73633 425.047057,2443.76397 425.047057,2656.26397 C425.047057,2804.59065 1354,2901.93212 1354,3373.76397 C1354,3845.59583 563.65297,3605.0985 568,3805.40652 C572.34703,4005.71455 1217.33081,4052.12276 1217.33081,4199.06209 C1217.33081,4346.00142 958.12259,4315.76289 954.46875,4426 C950.81491,4536.23711 667,4559.39391 671,4673 C675.066683,4788.5 1099.92557,4696.55516 1099.92557,4870.5 C1099.92557,4951.76467 1354,5028.59673 1354,5195.5 C1354,5497.5 568,5286.35392 568,5504.25092 C568,5722.14792 906,5599.0059 906,5732.5 C906,5778.26747 1176.27463,5811.05114 1168,6083 C1161.5,6296.625 932.995193,6284.5873 931.5,6471.25 C930.361683,6613.35962 632,6559.95312 632,6730.84375 C632,6901.73437 1084.68285,6738.15625 1078.34142,6972.01562 C1072,7205.875 1305,7364.98487 1305,7365 Z" id="Combined-Shape"></path>
        </g>
        <polygon id="overlay" fill="#746A6A" style="mix-blend-mode: screen;" points="0 6699 1024 6699 1024 -1301 0 -1301"></polygon>
    </g>
</svg>